Coordinates
version=1
nRows=5
nColumns=107
inDegrees=yes

Units are S.I. units (second, meters, Newtons, ...)
If the header above contains a line with 'inDegrees', this indicates whether rotational values are in degrees (yes) or radians (no).

endheader
time	sternoclavicular_r2	sternoclavicular_r3	unrotscap_r3	unrotscap_r2	acromioclavicular_r2	acromioclavicular_r3	acromioclavicular_r1	unrothum_r1	unrothum_r3	unrothum_r2	elv_angle	shoulder_elv	shoulder1_r2	shoulder_rot	elbow_flexion	pro_sup	deviation	flexion	proximal_distal_r1	proximal_distal_r3	cmc_flexion	cmc_abduction	mp_flexion	ip_flexion	mcp2_flexion	mcp2_abduction	pm2_flexion	md2_flexion	mcp3_flexion	mcp3_abduction	pm3_flexion	md3_flexion	mcp4_flexion	mcp4_abduction	pm4_flexion	md4_flexion	mcp5_flexion	mcp5_abduction	pm5_flexion	md5_flexion	bicpt_tx	bicpt_ty	bicpt_tz	bicpt2_tx	bicpt2_ty	bicpt2_tz	ptpt_tx	ptpt_ty	ptpt_tz	FCUpt_tx	FCUpt_ty	FCUpt_tz	EDCpt_tx	EDCpt_ty	EDCpt_tz	APLpt_tx	APLpt_ty	APLpt_tz	FPLpt_tx	FPLpt_ty	FPLpt_tz	FPLpt2_tx	FPLpt2_ty	FPLpt2_tz	PEC1pt2_tx	PEC1pt2_ty	PEC1pt2_tz	PEC1pt3_tx	PEC1pt3_ty	PEC1pt3_tz	PEC2pt2_tx	PEC2pt2_ty	PEC2pt2_tz	PEC2pt3_tx	PEC2pt3_ty	PEC2pt3_tz	PEC3pt2_tx	PEC3pt2_ty	PEC3pt2_tz	PEC3pt3_tx	PEC3pt3_ty	PEC3pt3_tz	DELT2pt2a_tx	DELT2pt2a_ty	DELT2pt2a_tz	DELT2pt2_tx	DELT2pt2_ty	DELT2pt2_tz	LAT1pt2_tx	LAT1pt2_ty	LAT1pt2_tz	LAT1pt3_tx	LAT1pt3_ty	LAT1pt3_tz	LAT2pt2_tx	LAT2pt2_ty	LAT2pt2_tz	LAT2pt3_tx	LAT2pt3_ty	LAT2pt3_tz	LAT3pt2_tx	LAT3pt2_ty	LAT3pt2_tz	LAT3pt3_tx	LAT3pt3_ty	LAT3pt3_tz
      0.00000000	     -0.32949110	      0.13955688	     -0.13955688	      0.32949110	     -0.06671525	      0.53916915	      0.24235282	     -0.24235282	     -0.53916915	      0.06671525	     98.07539232	     78.00994711	     -1.71173851	    -15.17317324	     27.32037746	     21.64349201	      0.07426621	     -0.08912569	      0.09627590	     -0.04456285	     26.97012158	      8.05833736	      6.09151805	      7.69532260	    -10.43950108	     14.04596114	      6.53110443	    -32.37404855	    -38.84614595	      8.67431561	     12.29534776	     18.49702733	    -38.83029835	     -3.47197545	     -2.69852404	     24.21006396	    -42.68689287	    -14.45184656	    -10.61522726	      5.00271501	      0.00080367	     -0.03073133	     -0.00480438	      0.01615467	     -0.01762171	     -0.00919339	      0.00595079	     -0.06593408	     -0.00179350	      0.00598413	     -0.18382908	     -0.00012923	     -0.00259721	      0.00068552	      0.00018689	      0.00008454	      0.00003382	      0.00016908	      0.00010821	      0.00032462	      0.00018260	     -0.00000366	     -0.00027018	     -0.00032421	      0.00255699	      0.00897115	      0.00624080	     -0.00836441	      0.02019593	     -0.01915579	      0.00255699	      0.00897115	      0.00624080	      0.00056341	      0.01872240	     -0.00983793	      0.00401708	      0.00498874	      0.01613416	      0.00000000	      0.00814142	      0.00000000	     -0.00732427	     -0.03384768	     -0.00671492	      0.01083511	     -0.00028853	     -0.00181343	     -0.00091012	      0.01525529	     -0.00624080	      0.00251366	      0.02201616	     -0.01820234	     -0.00611078	      0.01321836	     -0.00559072	     -0.01274164	      0.02791025	     -0.03124734	     -0.02392307	      0.01477856	     -0.00749763	     -0.01586204	      0.03224414	     -0.03904835
      0.03333333	     -0.32938182	      0.13951059	     -0.13951059	      0.32938182	     -0.06669312	      0.53899032	      0.24227244	     -0.24227244	     -0.53899032	      0.06669312	     98.09098763	     77.98407350	     -1.71201070	    -15.16239586	     27.32082315	     21.64530222	      0.07420379	     -0.08904643	      0.09619812	     -0.04452322	     26.97012915	      8.05751813	      6.09125209	      7.69580971	    -10.43641836	     14.04586397	      6.53140118	    -32.37354794	    -38.84194868	      8.67495802	     12.29608339	     18.49688973	    -38.82468640	     -3.47111758	     -2.69603390	     24.20997766	    -42.68589285	    -14.45134357	    -10.61500219	      5.00266956	      0.00080369	     -0.03073138	     -0.00480438	      0.01615475	     -0.01762184	     -0.00919324	      0.00595066	     -0.06593416	     -0.00179365	      0.00598430	     -0.18382905	     -0.00012927	     -0.00259743	      0.00068558	      0.00018689	      0.00008447	      0.00003379	      0.00016893	      0.00010812	      0.00032435	      0.00018245	     -0.00000365	     -0.00027015	     -0.00032418	      0.00255615	      0.00896818	      0.00623873	     -0.00836163	      0.02018923	     -0.01914944	      0.00255615	      0.00896818	      0.00623873	      0.00056322	      0.01871619	     -0.00983467	      0.00401612	      0.00498709	      0.01613188	      0.00000000	      0.00813598	      0.00000000	     -0.00732184	     -0.03383645	     -0.00671041	      0.01082819	     -0.00028822	     -0.00181057	     -0.00090981	      0.01525023	     -0.00623873	      0.00251282	      0.02200886	     -0.01819630	     -0.00610876	      0.01321398	     -0.00558886	     -0.01273741	      0.02790099	     -0.03123698	     -0.02391514	      0.01477366	     -0.00749514	     -0.01585678	      0.03223344	     -0.03903539
      0.06666667	     -0.32735244	      0.13865104	     -0.13865104	      0.32735244	     -0.06628221	      0.53566950	      0.24077975	     -0.24077975	     -0.53566950	      0.06628221	     98.45230092	     77.50359895	     -1.71831681	    -17.45940060	     27.42462453	     24.22856728	      0.06723673	     -0.09072639	      0.08755000	     -0.04536320	     27.12335793	      7.21983350	      6.55267857	      7.49231535	     -9.46412451	     14.03075932	      6.11632381	    -33.27220073	    -37.79068370	      8.58276804	     11.87531213	     18.05113168	    -37.55178932	     -3.34975153	     -2.63755783	     24.43806121	    -41.92538202	    -14.45429238	    -11.07587557	      4.94992134	      0.00080712	     -0.03074328	     -0.00480630	      0.01626042	     -0.01765003	     -0.00897928	      0.00575978	     -0.06605758	     -0.00200174	      0.00623077	     -0.18378783	     -0.00018080	     -0.00290742	      0.00077706	      0.00019224	      0.00008593	      0.00003437	      0.00017187	      0.00010999	      0.00032998	      0.00018562	     -0.00000394	     -0.00026939	     -0.00032327	      0.00254040	      0.00891292	      0.00620029	     -0.00831012	      0.02006484	     -0.01903146	      0.00254040	      0.00891292	      0.00620029	      0.00055975	      0.01860088	     -0.00977407	      0.00399821	      0.00495636	      0.01608921	      0.00000000	      0.00803529	      0.00000000	     -0.00727673	     -0.03362798	     -0.00662686	      0.01226703	     -0.00035522	     -0.00246821	     -0.00090421	      0.01515627	     -0.00620029	      0.00249734	      0.02187326	     -0.01808419	     -0.00607112	      0.01313257	     -0.00555443	     -0.01265893	      0.02772909	     -0.03104452	     -0.02376779	      0.01468264	     -0.00744896	     -0.01575908	      0.03203485	     -0.03879489
      0.10000000	     -0.32734463	      0.13864773	     -0.13864773	      0.32734463	     -0.06628063	      0.53565672	      0.24077401	     -0.24077401	     -0.53565672	      0.06628063	     98.45942211	     77.50175006	     -1.71844110	    -17.45573726	     27.42609512	     24.23034733	      0.06722520	     -0.09071711	      0.08753503	     -0.04535856	     27.12252795	      7.22021119	      6.55211013	      7.49259755	     -9.46337275	     14.03072605	      6.11659993	    -33.27192844	    -37.79007143	      8.58281703	     11.87554511	     18.05086726	    -37.55057978	     -3.34932817	     -2.63701494	     24.43762528	    -41.92528524	    -14.45384247	    -11.07634324	      4.94987836	      0.00080717	     -0.03074345	     -0.00480633	      0.01626048	     -0.01765043	     -0.00897913	      0.00575965	     -0.06605767	     -0.00200188	      0.00623095	     -0.18378780	     -0.00018083	     -0.00290763	      0.00077713	      0.00019224	      0.00008592	      0.00003437	      0.00017185	      0.00010998	      0.00032995	      0.00018560	     -0.00000393	     -0.00026938	     -0.00032326	      0.00254034	      0.00891271	      0.00620015	     -0.00830992	      0.02006436	     -0.01903100	      0.00254034	      0.00891271	      0.00620015	      0.00055974	      0.01860044	     -0.00977384	      0.00399814	      0.00495624	      0.01608905	      0.00000000	      0.00803491	      0.00000000	     -0.00727656	     -0.03362718	     -0.00662654	      0.01226479	     -0.00035511	     -0.00246710	     -0.00090419	      0.01515591	     -0.00620015	      0.00249728	      0.02187273	     -0.01808376	     -0.00607098	      0.01313225	     -0.00555430	     -0.01265863	      0.02772843	     -0.03104378	     -0.02376722	      0.01468229	     -0.00744879	     -0.01575870	      0.03203408	     -0.03879396
      0.13333333	     -0.32625042	      0.13818428	     -0.13818428	      0.32625042	     -0.06605907	      0.53386619	      0.23996918	     -0.23996918	     -0.53386619	      0.06605907	     98.62914708	     77.24268630	     -1.72140335	    -18.66115548	     27.57759698	     25.51060305	      0.06867912	     -0.08678609	      0.08934657	     -0.04339305	     26.94734391	      7.45311671	      6.21298547	      8.14790836	     -8.68993017	     14.04503619	      6.02988481	    -33.82191204	    -36.98953088	      8.54067198	     11.41905714	     16.68131539	    -36.66832274	     -3.13878204	     -2.70792176	     23.03469887	    -41.22073861	    -14.44024320	    -12.03099881	      4.94561976	      0.00081218	     -0.03076081	     -0.00480912	      0.01630719	     -0.01769159	     -0.00886962	      0.00566505	     -0.06611884	     -0.00210502	      0.00635386	     -0.18376667	     -0.00020451	     -0.00306127	      0.00082323	      0.00019355	      0.00008249	      0.00003299	      0.00016497	      0.00010558	      0.00031675	      0.00017817	     -0.00000361	     -0.00027026	     -0.00032431	      0.00253185	      0.00888292	      0.00617942	     -0.00828214	      0.01999729	     -0.01896739	      0.00253185	      0.00888292	      0.00617942	      0.00055786	      0.01853826	     -0.00974117	      0.00398845	      0.00493968	      0.01606581	      0.00000000	      0.00798089	      0.00000000	     -0.00725224	     -0.03351477	     -0.00658171	      0.01299169	     -0.00039118	     -0.00284771	     -0.00090117	      0.01510525	     -0.00617942	      0.00248893	      0.02179962	     -0.01802331	     -0.00605068	      0.01308836	     -0.00553573	     -0.01261632	      0.02763574	     -0.03094001	     -0.02368778	      0.01463321	     -0.00742389	     -0.01570603	      0.03192700	     -0.03866429
